<svg xmlns="http://www.w3.org/2000/svg" version="1.1" xmlns:xlink="http://www.w3.org/1999/xlink" xmlns:svgjs="http://svgjs.dev/svgjs" width="1000" height="277" viewBox="0 0 1000 277"><g transform="matrix(1,0,0,1,-0.6060606060606233,0.5568272337310987)"><svg viewBox="0 0 396 110" data-background-color="#ffffff" preserveAspectRatio="xMidYMid meet" height="277" width="1000" xmlns="http://www.w3.org/2000/svg" xmlns:xlink="http://www.w3.org/1999/xlink"><g id="tight-bounds" transform="matrix(1,0,0,1,0.2400000000000091,-0.2211227281964625)"><svg viewBox="0 0 395.52 110.4422454563929" height="110.4422454563929" width="395.52"><g><svg viewBox="0 0 397.4976 110.99445668367485" height="110.4422454563929" width="395.52"><g><svg viewBox="0 0 397.4976 110.99445668367485" height="110.99445668367485" width="397.4976"><g id="textblocktransform"><svg viewBox="0 0 397.4976 110.99445668367485" height="110.99445668367485" width="397.4976" id="textblock"><g><rect width="397.4976" height="6.755276498019173" x="0" y="82.86573935597723" fill="#0074d9" opacity="1" stroke-width="0" stroke="transparent" fill-opacity="1" class="rect-i$-0" data-fill-palette-color="primary" rx="1%" id="i$-0" data-palette-color="#0074d9"></rect></g><g transform="matrix(1,0,0,1,0.9887999999999693,0)"><svg viewBox="0 0 395.52000000000004 74.90795290543107" height="74.90795290543107" width="395.52000000000004"><g transform="matrix(1,0,0,1,0,0)"><svg width="395.52000000000004" viewBox="-0.07 -36.04 192.82999999999998 36.53" height="74.90795290543107" data-palette-color="#0074d9"><path d="M24.95 0L22.88-6.64 11.13-6.64 9.08 0-0.07 0 12.96-35.55 21.02-35.55 34.16 0 24.95 0ZM16.99-25.59L13.18-13.26 20.83-13.26 16.99-25.59ZM44.19-35.55L50-23.73 55.81-35.55 65.6-35.55 55.66-17.92 65.87 0 55.98 0 50-12.04 44.02 0 34.15 0 44.33-17.92 34.42-35.55 44.19-35.55ZM98.14-18.68L98.14-17.04Q98.14-11.84 96.21-7.84 94.28-3.83 90.73-1.67 87.18 0.49 82.64 0.49 78.1 0.49 74.58-1.6 71.06-3.69 69.1-7.57 67.13-11.45 67.04-16.48L67.04-16.48 67.04-18.48Q67.04-23.71 68.95-27.7 70.87-31.69 74.45-33.86 78.02-36.04 82.59-36.04L82.59-36.04Q87.1-36.04 90.64-33.89 94.18-31.74 96.15-27.77 98.12-23.8 98.14-18.68L98.14-18.68ZM89.42-16.89L89.42-18.53Q89.42-23.83 87.65-26.57 85.88-29.32 82.59-29.32L82.59-29.32Q76.14-29.32 75.78-19.65L75.78-19.65 75.75-17.04Q75.75-11.82 77.49-9.01 79.22-6.2 82.64-6.2L82.64-6.2Q85.88-6.2 87.64-8.96 89.4-11.72 89.42-16.89L89.42-16.89ZM116.59-12.06L111.13-12.06 111.13 0 102.56 0 102.56-35.55 116.74-35.55Q120.82-35.55 123.95-34.05 127.09-32.54 128.81-29.77 130.53-27 130.53-23.49L130.53-23.49Q130.53-18.29 126.81-15.17 123.09-12.06 116.59-12.06L116.59-12.06ZM111.13-28.93L111.13-18.68 116.74-18.68Q119.23-18.68 120.54-19.92 121.84-21.17 121.84-23.44L121.84-23.44Q121.84-25.93 120.5-27.42 119.16-28.91 116.84-28.93L116.84-28.93 111.13-28.93ZM157.14-21.44L157.14-15.06 143.67-15.06 143.67-6.59 159.58-6.59 159.58 0 135.1 0 135.1-35.55 159.63-35.55 159.63-28.93 143.67-28.93 143.67-21.44 157.14-21.44ZM192.76-35.55L192.76 0 184.24 0 171.64-22.12 171.64 0 163.07 0 163.07-35.55 171.64-35.55 184.22-13.43 184.22-35.55 192.76-35.55Z" opacity="1" transform="matrix(1,0,0,1,0,0)" fill="#0074d9" class="undefined-text-0" data-fill-palette-color="primary" id="text-0"></path></svg></g></svg></g><g transform="matrix(1,0,0,1,0,97.57880230454255)"><svg viewBox="0 0 395.52000000000004 13.415654379132327" height="13.415654379132327" width="395.52000000000004"><g transform="matrix(1,0,0,1,0,0)"><svg width="395.52000000000004" viewBox="1.22 -36.06 1078.1399999999999 36.57" height="13.415654379132327" data-palette-color="#ff4136"><path d="M9.74-8.18L20.9-8.18 23.29 0 29.37 0 17.99-35.55 12.79-35.55 1.22 0 7.32 0 9.74-8.18ZM19.46-13.21L11.23-13.21 15.38-27.27 19.46-13.21ZM39.94 0L39.94-13.55 45.97-13.55Q48.65-13.55 50.91-14.33 53.17-15.11 54.81-16.55L54.81-16.55Q56.44-17.97 57.35-19.96 58.25-21.95 58.25-24.41L58.25-24.41Q58.25-26.98 57.35-29.03 56.44-31.08 54.81-32.52L54.81-32.52Q53.17-33.96 50.91-34.74 48.65-35.52 45.97-35.55L45.97-35.55 34.08-35.55 34.08 0 39.94 0ZM45.97-18.33L39.94-18.33 39.94-30.76 45.97-30.76Q47.46-30.74 48.64-30.27 49.83-29.81 50.66-28.96L50.66-28.96Q51.49-28.1 51.91-26.94 52.34-25.78 52.34-24.37L52.34-24.37Q52.34-23.07 51.91-21.97 51.49-20.87 50.66-20.07L50.66-20.07Q49.83-19.26 48.64-18.81 47.46-18.36 45.97-18.33L45.97-18.33ZM69.94 0L69.94-13.55 75.97-13.55Q78.66-13.55 80.92-14.33 83.17-15.11 84.81-16.55L84.81-16.55Q86.45-17.97 87.35-19.96 88.25-21.95 88.25-24.41L88.25-24.41Q88.25-26.98 87.35-29.03 86.45-31.08 84.81-32.52L84.81-32.52Q83.17-33.96 80.92-34.74 78.66-35.52 75.97-35.55L75.97-35.55 64.08-35.55 64.08 0 69.94 0ZM75.97-18.33L69.94-18.33 69.94-30.76 75.97-30.76Q77.46-30.74 78.64-30.27 79.83-29.81 80.66-28.96L80.66-28.96Q81.49-28.1 81.92-26.94 82.34-25.78 82.34-24.37L82.34-24.37Q82.34-23.07 81.92-21.97 81.49-20.87 80.66-20.07L80.66-20.07Q79.83-19.26 78.64-18.81 77.46-18.36 75.97-18.33L75.97-18.33ZM117.01-4.83L100.04-4.83 100.04-35.55 94.16-35.55 94.16 0 117.01 0 117.01-4.83ZM145.47-35.55L124.53-35.55 124.53-30.69 131.95-30.69 131.95-4.83 124.53-4.83 124.53 0 145.47 0 145.47-4.83 137.88-4.83 137.88-30.69 145.47-30.69 145.47-35.55ZM177.65-10.94L177.65-10.94 171.76-10.94Q171.62-9.33 171.13-8.08 170.64-6.84 169.84-6.01L169.84-6.01Q169.01-5.15 167.83-4.71 166.66-4.27 165.15-4.27L165.15-4.27Q163.88-4.27 162.89-4.63 161.9-4.98 161.14-5.66L161.14-5.66Q160.41-6.3 159.89-7.18 159.36-8.06 159.02-9.13L159.02-9.13Q158.58-10.42 158.37-11.99 158.17-13.55 158.17-15.33L158.17-15.33 158.17-20.24Q158.17-21.68 158.32-23.06 158.48-24.44 158.8-25.66L158.8-25.66Q159.22-27.05 159.86-28.19 160.51-29.32 161.49-30.03L161.49-30.03Q162.19-30.62 163.11-30.93 164.03-31.25 165.17-31.25L165.17-31.25Q166.81-31.25 167.98-30.77 169.15-30.3 169.96-29.39L169.96-29.39Q170.74-28.49 171.19-27.21 171.64-25.93 171.79-24.34L171.79-24.34 177.65-24.34Q177.38-27 176.46-29.17 175.55-31.35 173.96-32.89L173.96-32.89Q172.4-34.4 170.19-35.23 167.98-36.06 165.17-36.06L165.17-36.06Q163.1-36.06 161.35-35.5 159.61-34.94 158.17-33.94L158.17-33.94Q156.65-32.84 155.49-31.29 154.33-29.74 153.6-27.83L153.6-27.83Q152.92-26.12 152.58-24.19 152.23-22.27 152.23-20.19L152.23-20.19 152.23-15.33Q152.23-13.16 152.59-11.16 152.94-9.16 153.65-7.45L153.65-7.45Q154.36-5.71 155.4-4.26 156.43-2.81 157.82-1.78L157.82-1.78Q159.26-0.68 161.11-0.09 162.95 0.51 165.15 0.51L165.15 0.51Q167.83 0.51 170.04-0.31 172.25-1.12 173.86-2.64L173.86-2.64Q175.45-4.13 176.43-6.24 177.4-8.35 177.65-10.94ZM189.76-8.18L200.91-8.18 203.31 0 209.38 0 198.01-35.55 192.81-35.55 181.24 0 187.34 0 189.76-8.18ZM199.47-13.21L191.24-13.21 195.4-27.27 199.47-13.21ZM227.91-30.69L238.87-30.69 238.87-35.55 211.19-35.55 211.19-30.69 222.08-30.69 222.08 0 227.91 0 227.91-30.69ZM265.48-35.55L244.54-35.55 244.54-30.69 251.96-30.69 251.96-4.83 244.54-4.83 244.54 0 265.48 0 265.48-4.83 257.89-4.83 257.89-30.69 265.48-30.69 265.48-35.55ZM297.76-15.41L297.76-15.41 297.76-20.09Q297.76-22.31 297.37-24.38 296.97-26.44 296.19-28.25L296.19-28.25Q295.49-29.93 294.44-31.35 293.39-32.76 291.97-33.81L291.97-33.81Q290.55-34.86 288.77-35.45 286.99-36.04 284.87-36.04L284.87-36.04Q282.77-36.04 281.02-35.46 279.27-34.89 277.91-33.84L277.91-33.84Q276.49-32.76 275.45-31.31 274.42-29.86 273.71-28.13L273.71-28.13Q272.98-26.32 272.61-24.29 272.24-22.27 272.24-20.09L272.24-20.09 272.24-15.41Q272.24-13.33 272.58-11.36 272.93-9.4 273.61-7.67L273.61-7.67Q274.32-5.86 275.38-4.35 276.44-2.83 277.86-1.76L277.86-1.76Q279.25-0.71 281.02-0.11 282.79 0.49 284.91 0.49L284.91 0.49Q286.96 0.49 288.69-0.07 290.41-0.63 291.82-1.61L291.82-1.61Q293.29-2.69 294.41-4.19 295.53-5.69 296.29-7.47L296.29-7.47Q297-9.25 297.38-11.25 297.76-13.26 297.76-15.41ZM291.85-20.14L291.85-20.14 291.85-15.41Q291.82-14.09 291.69-12.81 291.55-11.52 291.26-10.35L291.26-10.35Q290.92-9.01 290.35-7.9 289.77-6.79 288.92-5.98L288.92-5.98Q288.19-5.27 287.17-4.86 286.16-4.44 284.91-4.44L284.91-4.44Q283.62-4.44 282.63-4.87 281.64-5.3 280.89-6.03L280.89-6.03Q280.1-6.81 279.56-7.95 279.01-9.08 278.69-10.4L278.69-10.4Q278.4-11.57 278.27-12.84 278.15-14.11 278.15-15.41L278.15-15.41 278.15-20.14Q278.15-21.46 278.29-22.77 278.42-24.07 278.71-25.24L278.71-25.24Q279.03-26.61 279.62-27.72 280.2-28.83 281.06-29.64L281.06-29.64Q281.76-30.3 282.72-30.68 283.67-31.05 284.87-31.05L284.87-31.05Q286.11-31.05 287.09-30.66 288.06-30.27 288.82-29.59L288.82-29.59Q289.67-28.81 290.27-27.7 290.87-26.59 291.24-25.24L291.24-25.24Q291.55-24.07 291.69-22.78 291.82-21.48 291.85-20.14ZM320.73 0L326.61 0 326.61-35.55 320.7-35.55 320.65-11.18 309.18-35.55 303.22-35.55 303.22 0 309.15 0 309.18-24.46 320.73 0ZM370.01-15.14L385.05-15.14 385.05-19.97 370.01-19.97 370.01-30.69 387.2-30.69 387.2-35.55 364.11-35.55 364.11 0 370.01 0 370.01-15.14ZM399.6-13.79L405.61-13.79 412.42 0 418.69 0 418.69-0.32 411.1-15.19Q412.57-15.84 413.76-16.75 414.96-17.65 415.81-18.85L415.81-18.85Q416.67-20.04 417.14-21.53 417.62-23.02 417.62-24.85L417.62-24.85Q417.62-27.51 416.69-29.5 415.76-31.49 414.1-32.84L414.1-32.84Q412.42-34.16 410.1-34.84 407.78-35.52 405.02-35.55L405.02-35.55 393.74-35.55 393.74 0 399.6 0 399.6-13.79ZM405.09-18.58L399.6-18.58 399.6-30.76 405.02-30.76Q406.53-30.74 407.76-30.36 408.98-29.98 409.83-29.25L409.83-29.25Q410.76-28.47 411.23-27.31 411.71-26.15 411.71-24.61L411.71-24.61Q411.71-23.24 411.27-22.17 410.83-21.09 410.05-20.36L410.05-20.36Q409.17-19.51 407.91-19.06 406.66-18.6 405.09-18.58L405.09-18.58ZM429.77-8.18L440.93-8.18 443.32 0 449.4 0 438.03-35.55 432.83-35.55 421.25 0 427.36 0 429.77-8.18ZM439.49-13.21L431.26-13.21 435.41-27.27 439.49-13.21ZM465.03-20.34L460.63-35.55 453.36-35.55 453.36 0 458.85 0 458.85-12.06 458.53-27.34 463.49-10.96 466.54-10.96 472.01-27.93 471.67-12.06 471.67 0 477.18 0 477.18-35.55 469.88-35.55 465.03-20.34ZM489.88-15.94L504.57-15.94 504.57-20.68 489.88-20.68 489.88-30.69 506.92-30.69 506.92-35.55 483.99-35.55 483.99 0 507.04 0 507.04-4.83 489.88-4.83 489.88-15.94ZM511.16-35.55L515.8 0 521.34 0 524.91-21.75 525.18-23.44 525.42-21.75 529.03 0 534.58 0 539.26-35.55 533.8-35.55 531.33-13.72 531.16-12.23 530.91-13.7 527.37-35.55 522.88-35.55 519.46-13.79 519.22-12.33 519.05-13.72 516.61-35.55 511.16-35.55ZM567.78-15.41L567.78-15.41 567.78-20.09Q567.78-22.31 567.39-24.38 567-26.44 566.21-28.25L566.21-28.25Q565.51-29.93 564.46-31.35 563.41-32.76 561.99-33.81L561.99-33.81Q560.58-34.86 558.79-35.45 557.01-36.04 554.89-36.04L554.89-36.04Q552.79-36.04 551.04-35.46 549.3-34.89 547.93-33.84L547.93-33.84Q546.51-32.76 545.48-31.31 544.44-29.86 543.73-28.13L543.73-28.13Q543-26.32 542.63-24.29 542.26-22.27 542.26-20.09L542.26-20.09 542.26-15.41Q542.26-13.33 542.61-11.36 542.95-9.4 543.63-7.67L543.63-7.67Q544.34-5.86 545.4-4.35 546.46-2.83 547.88-1.76L547.88-1.76Q549.27-0.71 551.04-0.11 552.81 0.49 554.94 0.49L554.94 0.49Q556.99 0.49 558.71-0.07 560.43-0.63 561.84-1.61L561.84-1.61Q563.31-2.69 564.43-4.19 565.56-5.69 566.31-7.47L566.31-7.47Q567.02-9.25 567.4-11.25 567.78-13.26 567.78-15.41ZM561.87-20.14L561.87-20.14 561.87-15.41Q561.84-14.09 561.71-12.81 561.58-11.52 561.28-10.35L561.28-10.35Q560.94-9.01 560.37-7.9 559.79-6.79 558.94-5.98L558.94-5.98Q558.21-5.27 557.19-4.86 556.18-4.44 554.94-4.44L554.94-4.44Q553.64-4.44 552.65-4.87 551.66-5.3 550.91-6.03L550.91-6.03Q550.13-6.81 549.58-7.95 549.03-9.08 548.71-10.4L548.71-10.4Q548.42-11.57 548.29-12.84 548.17-14.11 548.17-15.41L548.17-15.41 548.17-20.14Q548.17-21.46 548.31-22.77 548.44-24.07 548.73-25.24L548.73-25.24Q549.05-26.61 549.64-27.72 550.22-28.83 551.08-29.64L551.08-29.64Q551.79-30.3 552.74-30.68 553.69-31.05 554.89-31.05L554.89-31.05Q556.13-31.05 557.11-30.66 558.08-30.27 558.84-29.59L558.84-29.59Q559.7-28.81 560.29-27.7 560.89-26.59 561.26-25.24L561.26-25.24Q561.58-24.07 561.71-22.78 561.84-21.48 561.87-20.14ZM579.62-13.79L585.62-13.79 592.43 0 598.71 0 598.71-0.32 591.11-15.19Q592.58-15.84 593.78-16.75 594.97-17.65 595.83-18.85L595.83-18.85Q596.68-20.04 597.16-21.53 597.63-23.02 597.63-24.85L597.63-24.85Q597.63-27.51 596.71-29.5 595.78-31.49 594.12-32.84L594.12-32.84Q592.43-34.16 590.11-34.84 587.79-35.52 585.04-35.55L585.04-35.55 573.76-35.55 573.76 0 579.62 0 579.62-13.79ZM585.11-18.58L579.62-18.58 579.62-30.76 585.04-30.76Q586.55-30.74 587.77-30.36 588.99-29.98 589.85-29.25L589.85-29.25Q590.77-28.47 591.25-27.31 591.72-26.15 591.72-24.61L591.72-24.61Q591.72-23.24 591.29-22.17 590.85-21.09 590.06-20.36L590.06-20.36Q589.19-19.51 587.93-19.06 586.67-18.6 585.11-18.58L585.11-18.58ZM609.57-11.11L613.4-15.41 623.02 0 630.05 0 617.28-19.9 629.44-35.55 622.26-35.55 612.89-23.14 609.57-18.82 609.57-35.55 603.64-35.55 603.64 0 609.57 0 609.57-11.11ZM670.04-15.14L685.08-15.14 685.08-19.97 670.04-19.97 670.04-30.69 687.23-30.69 687.23-35.55 664.13-35.55 664.13 0 670.04 0 670.04-15.14ZM717.79-15.41L717.79-15.41 717.79-20.09Q717.79-22.31 717.4-24.38 717.01-26.44 716.23-28.25L716.23-28.25Q715.52-29.93 714.47-31.35 713.42-32.76 712-33.81L712-33.81Q710.59-34.86 708.8-35.45 707.02-36.04 704.9-36.04L704.9-36.04Q702.8-36.04 701.05-35.46 699.31-34.89 697.94-33.84L697.94-33.84Q696.52-32.76 695.49-31.31 694.45-29.86 693.74-28.13L693.74-28.13Q693.01-26.32 692.64-24.29 692.28-22.27 692.28-20.09L692.28-20.09 692.28-15.41Q692.28-13.33 692.62-11.36 692.96-9.4 693.64-7.67L693.64-7.67Q694.35-5.86 695.41-4.35 696.48-2.83 697.89-1.76L697.89-1.76Q699.28-0.71 701.05-0.11 702.82 0.49 704.95 0.49L704.95 0.49Q707 0.49 708.72-0.07 710.44-0.63 711.86-1.61L711.86-1.61Q713.32-2.69 714.44-4.19 715.57-5.69 716.32-7.47L716.32-7.47Q717.03-9.25 717.41-11.25 717.79-13.26 717.79-15.41ZM711.88-20.14L711.88-20.14 711.88-15.41Q711.86-14.09 711.72-12.81 711.59-11.52 711.3-10.35L711.3-10.35Q710.95-9.01 710.38-7.9 709.81-6.79 708.95-5.98L708.95-5.98Q708.22-5.27 707.21-4.86 706.19-4.44 704.95-4.44L704.95-4.44Q703.65-4.44 702.66-4.87 701.68-5.3 700.92-6.03L700.92-6.03Q700.14-6.81 699.59-7.95 699.04-9.08 698.72-10.4L698.72-10.4Q698.43-11.57 698.31-12.84 698.18-14.11 698.18-15.41L698.18-15.41 698.18-20.14Q698.18-21.46 698.32-22.77 698.45-24.07 698.75-25.24L698.75-25.24Q699.06-26.61 699.65-27.72 700.24-28.83 701.09-29.64L701.09-29.64Q701.8-30.3 702.75-30.68 703.7-31.05 704.9-31.05L704.9-31.05Q706.14-31.05 707.12-30.66 708.1-30.27 708.85-29.59L708.85-29.59Q709.71-28.81 710.31-27.7 710.9-26.59 711.27-25.24L711.27-25.24Q711.59-24.07 711.72-22.78 711.86-21.48 711.88-20.14ZM729.63-13.79L735.63-13.79 742.44 0 748.72 0 748.72-0.32 741.13-15.19Q742.59-15.84 743.79-16.75 744.98-17.65 745.84-18.85L745.84-18.85Q746.69-20.04 747.17-21.53 747.65-23.02 747.65-24.85L747.65-24.85Q747.65-27.51 746.72-29.5 745.79-31.49 744.13-32.84L744.13-32.84Q742.44-34.16 740.13-34.84 737.81-35.52 735.05-35.55L735.05-35.55 723.77-35.55 723.77 0 729.63 0 729.63-13.79ZM735.12-18.58L729.63-18.58 729.63-30.76 735.05-30.76Q736.56-30.74 737.78-30.36 739-29.98 739.86-29.25L739.86-29.25Q740.78-28.47 741.26-27.31 741.74-26.15 741.74-24.61L741.74-24.61Q741.74-23.24 741.3-22.17 740.86-21.09 740.08-20.36L740.08-20.36Q739.2-19.51 737.94-19.06 736.68-18.6 735.12-18.58L735.12-18.58ZM802.23-9.16L802.23-9.16Q802.23-7.98 801.73-7.08 801.23-6.18 800.4-5.57L800.4-5.57Q799.54-4.93 798.38-4.61 797.23-4.3 795.88-4.3L795.88-4.3Q794.3-4.3 792.96-4.69 791.63-5.08 790.66-5.88L790.66-5.88Q789.66-6.67 789.08-7.87 788.51-9.08 788.39-10.72L788.39-10.72 782.53-10.72Q782.55-8.15 783.57-6.18 784.58-4.2 786.31-2.73L786.31-2.73Q788.19-1.17 790.73-0.35 793.27 0.46 795.88 0.46L795.88 0.46Q798.35 0.46 800.57-0.16 802.79-0.78 804.48-2.03L804.48-2.03Q806.14-3.22 807.12-5.03 808.11-6.84 808.11-9.2L808.11-9.2Q808.11-11.77 806.98-13.73 805.84-15.7 803.96-17.11L803.96-17.11Q802.45-18.24 800.66-19.03 798.86-19.82 796.98-20.36L796.98-20.36Q795.49-20.8 794.14-21.31 792.78-21.83 791.73-22.51L791.73-22.51Q790.71-23.19 790.1-24.11 789.49-25.02 789.46-26.25L789.46-26.25Q789.46-27.39 789.93-28.32 790.39-29.25 791.22-29.91L791.22-29.91Q792.05-30.54 793.18-30.9 794.32-31.25 795.66-31.25L795.66-31.25Q797.2-31.25 798.38-30.8 799.57-30.35 800.4-29.57L800.4-29.57Q801.2-28.76 801.66-27.65 802.11-26.54 802.23-25.2L802.23-25.2 808.04-25.2Q808.04-27.61 807.08-29.6 806.11-31.59 804.45-33.03L804.45-33.03Q802.79-34.45 800.56-35.24 798.32-36.04 795.74-36.04L795.74-36.04Q793.29-36.04 791.08-35.36 788.88-34.69 787.22-33.42L787.22-33.42Q785.56-32.13 784.58-30.31 783.6-28.49 783.6-26.22L783.6-26.22Q783.6-24.12 784.44-22.45 785.29-20.78 786.78-19.46L786.78-19.46Q788.27-18.16 790.38-17.13 792.49-16.09 795-15.38L795-15.38Q796.64-14.92 797.97-14.34 799.3-13.77 800.28-13.06L800.28-13.06Q801.2-12.3 801.72-11.35 802.23-10.4 802.23-9.16ZM835.53-35.55L814.58-35.55 814.58-30.69 822-30.69 822-4.83 814.58-4.83 814.58 0 835.53 0 835.53-4.83 827.94-4.83 827.94-30.69 835.53-30.69 835.53-35.55ZM855.06-20.34L850.66-35.55 843.39-35.55 843.39 0 848.88 0 848.88-12.06 848.56-27.34 853.52-10.96 856.57-10.96 862.04-27.93 861.7-12.06 861.7 0 867.22 0 867.22-35.55 859.92-35.55 855.06-20.34ZM879.81-8.18L890.97-8.18 893.36 0 899.44 0 888.06-35.55 882.86-35.55 871.29 0 877.39 0 879.81-8.18ZM889.53-13.21L881.3-13.21 885.45-27.27 889.53-13.21ZM917.97-30.69L928.93-30.69 928.93-35.55 901.24-35.55 901.24-30.69 912.13-30.69 912.13 0 917.97 0 917.97-30.69ZM955.54-35.55L934.59-35.55 934.59-30.69 942.01-30.69 942.01-4.83 934.59-4.83 934.59 0 955.54 0 955.54-4.83 947.94-4.83 947.94-30.69 955.54-30.69 955.54-35.55ZM987.71-10.94L987.71-10.94 981.83-10.94Q981.68-9.33 981.19-8.08 980.71-6.84 979.9-6.01L979.9-6.01Q979.07-5.15 977.9-4.71 976.73-4.27 975.21-4.27L975.21-4.27Q973.94-4.27 972.95-4.63 971.97-4.98 971.21-5.66L971.21-5.66Q970.48-6.3 969.95-7.18 969.43-8.06 969.09-9.13L969.09-9.13Q968.65-10.42 968.44-11.99 968.23-13.55 968.23-15.33L968.23-15.33 968.23-20.24Q968.23-21.68 968.39-23.06 968.55-24.44 968.87-25.66L968.87-25.66Q969.28-27.05 969.93-28.19 970.57-29.32 971.55-30.03L971.55-30.03Q972.26-30.62 973.17-30.93 974.09-31.25 975.24-31.25L975.24-31.25Q976.87-31.25 978.04-30.77 979.22-30.3 980.02-29.39L980.02-29.39Q980.8-28.49 981.26-27.21 981.71-25.93 981.85-24.34L981.85-24.34 987.71-24.34Q987.44-27 986.53-29.17 985.61-31.35 984.03-32.89L984.03-32.89Q982.46-34.4 980.25-35.23 978.04-36.06 975.24-36.06L975.24-36.06Q973.16-36.06 971.42-35.5 969.67-34.94 968.23-33.94L968.23-33.94Q966.72-32.84 965.56-31.29 964.4-29.74 963.67-27.83L963.67-27.83Q962.98-26.12 962.64-24.19 962.3-22.27 962.3-20.19L962.3-20.19 962.3-15.33Q962.3-13.16 962.65-11.16 963.01-9.16 963.71-7.45L963.71-7.45Q964.42-5.71 965.46-4.26 966.5-2.81 967.89-1.78L967.89-1.78Q969.33-0.68 971.17-0.09 973.02 0.51 975.21 0.51L975.21 0.51Q977.9 0.51 980.11-0.31 982.32-1.12 983.93-2.64L983.93-2.64Q985.52-4.13 986.49-6.24 987.47-8.35 987.71-10.94ZM1029.82-8.18L1040.98-8.18 1043.37 0 1049.45 0 1038.07-35.55 1032.87-35.55 1021.3 0 1027.41 0 1029.82-8.18ZM1039.54-13.21L1031.31-13.21 1035.46-27.27 1039.54-13.21ZM1072.23-35.55L1065.32-22.29 1058.53-35.55 1051.67-35.55 1061.8-17.92 1051.4 0 1058.34 0 1065.42-13.48 1072.52 0 1079.36 0 1068.98-17.92 1079.11-35.55 1072.23-35.55Z" opacity="1" transform="matrix(1,0,0,1,0,0)" fill="#ff4136" class="undefined-text-1" data-fill-palette-color="secondary" id="text-1"></path></svg></g></svg></g></svg></g></svg></g><g></g></svg></g><defs></defs></svg><rect width="395.52" height="110.4422454563929" fill="none" stroke="none" visibility="hidden"></rect></g></svg></g></svg>